<?xml version="1.0" encoding="UTF-8" standalone="no"?>
<svg
   xmlns:dc="http://purl.org/dc/elements/1.1/"
   xmlns:cc="http://creativecommons.org/ns#"
   xmlns:rdf="http://www.w3.org/1999/02/22-rdf-syntax-ns#"
   xmlns:svg="http://www.w3.org/2000/svg"
   xmlns="http://www.w3.org/2000/svg"
   id="svg1280"
   version="1.1"
   viewBox="0 0 24 24"
   height="5.6692915pc"
   width="5.6692915pc">
  <defs
     id="defs1274" />
  <metadata
     id="metadata1277">
    <rdf:RDF>
      <cc:Work
         rdf:about="">
        <dc:format>image/svg+xml</dc:format>
        <dc:type
           rdf:resource="http://purl.org/dc/dcmitype/StillImage" />
        <dc:title></dc:title>
      </cc:Work>
    </rdf:RDF>
  </metadata>
  <g
     transform="translate(0,-273)"
     id="layer1">
    <path
       opacity="50%"
       d="m 12.085135,283.85825 a 1.06324,1.06324 0 0 0 -0.552997,0.14118 l -8.6604838,4.97888 a 1.06324,1.06324 0 0 0 0,1.8434 l 8.6604838,4.97877 a 1.06324,1.06324 0 0 0 1.059742,0 l 8.660484,-4.97877 a 1.06324,1.06324 0 0 0 0,-1.8434 l -8.660484,-4.97888 a 1.06324,1.06324 0 0 0 -0.506745,-0.14118 z m -0.02307,2.28915 6.527282,3.75264 -6.527282,3.75247 -6.5275066,-3.75247 z"
       id="path4643-3-7-6-0-3-1-2-3-8-2" />
    <path
       opacity="75%"
       d="m 12.085135,278.87511 a 1.06324,1.06324 0 0 0 -0.552997,0.14113 l -8.6604838,4.97894 a 1.06324,1.06324 0 0 0 0,1.8434 l 8.6604838,4.97876 a 1.06324,1.06324 0 0 0 1.059742,0 l 8.660484,-4.97876 a 1.06324,1.06324 0 0 0 0,-1.8434 l -8.660484,-4.97894 a 1.06324,1.06324 0 0 0 -0.506745,-0.14113 z m -0.02307,2.2891 6.527282,3.75264 -6.527282,3.75252 -6.5275066,-3.75252 z"
       id="path4643-6-5-2-6-6-2-6-6-5-5" />
    <path
       d="m 12.085135,273.93278 a 1.06324,1.06324 0 0 0 -0.552997,0.14113 l -8.6604838,4.97894 a 1.06324,1.06324 0 0 0 0,1.84334 l 8.6604838,4.97882 a 1.06324,1.06324 0 0 0 1.059742,0 l 8.660484,-4.97882 a 1.06324,1.06324 0 0 0 0,-1.84334 l -8.660484,-4.97894 a 1.06324,1.06324 0 0 0 -0.506745,-0.14113 z m -0.02307,2.2891 6.527282,3.75264 -6.527282,3.75252 -6.5275066,-3.75252 z"
       id="path4643-35-9-2-7-7-1-7-9-4" />
  </g>
</svg>
